<svg width="20" height="21" viewBox="0 0 20 21" fill="none" xmlns="http://www.w3.org/2000/svg">
<path d="M19.869 10.9781C19.8698 10.2966 19.8118 9.6164 19.6956 8.94482H10.1998V12.796H15.6385C15.5273 13.4111 15.2917 13.9975 14.9461 14.5197C14.6005 15.042 14.1519 15.4893 13.6275 15.8348V18.3346H16.8734C18.774 16.5944 19.869 14.021 19.869 10.9781Z" fill="#4285F4"/>
<path d="M10.1998 20.75C12.9171 20.75 15.205 19.8639 16.8734 18.3362L13.6275 15.8364C12.7241 16.4447 11.5605 16.7919 10.1998 16.7919C7.5734 16.7919 5.3442 15.0336 4.54706 12.6643H1.20325V15.2406C2.04132 16.8967 3.32641 18.2889 4.91506 19.2618C6.5037 20.2347 8.33336 20.7499 10.1998 20.75Z" fill="#34A853"/>
<path d="M4.54701 12.664C4.12559 11.4224 4.12559 10.0779 4.54701 8.83639V6.26013H1.2032C0.498184 7.65333 0.131012 9.19096 0.131012 10.7502C0.131012 12.3094 0.498184 13.847 1.2032 15.2402L4.54701 12.664Z" fill="#FBBC04"/>
<path d="M10.1998 4.70879C11.6357 4.68549 13.0233 5.22429 14.0624 6.20872L16.9363 3.35469C15.114 1.65488 12.6998 0.721659 10.1998 0.750656C8.33336 0.750741 6.5037 1.26598 4.91506 2.23886C3.32641 3.21174 2.04132 4.60397 1.20325 6.2601L4.54706 8.83636C5.3442 6.46704 7.5734 4.70879 10.1998 4.70879Z" fill="#EA4335"/>
</svg>
