<svg width="565" height="152" viewBox="0 0 565 152" fill="none" xmlns="http://www.w3.org/2000/svg">
<rect x="1" y="1" width="150" height="150" rx="10" fill="#3366FF"/>
<rect x="0.5" y="0.5" width="151" height="151" rx="10.5" stroke="#333333" stroke-opacity="0.5"/>
<g opacity="0.2">
<path d="M125.26 83.9351C126.361 84.6332 127.261 85.6062 127.871 86.7582C128.482 87.9102 128.781 89.2014 128.74 90.5044C128.699 91.8074 128.319 93.0773 127.638 94.1887C126.957 95.3002 125.998 96.2149 124.855 96.8426L64.6075 129.903C63.4658 130.529 62.1807 130.847 60.8787 130.826C59.5767 130.805 58.3026 130.445 57.1817 129.782C56.0609 129.12 55.132 128.176 54.4865 127.045C53.8409 125.914 53.5009 124.635 53.5 123.333V52.1276C53.4998 50.7849 53.86 49.4669 54.5431 48.311C55.2261 47.155 56.2069 46.2037 57.3831 45.5562C58.5593 44.9087 59.8878 44.5888 61.2298 44.63C62.5718 44.6711 63.8782 45.0718 65.0125 45.7901L125.26 83.9351Z" fill="white"/>
<path fill-rule="evenodd" clip-rule="evenodd" d="M106.503 89.8076L68.5 65.7476V110.658L106.503 89.8076ZM124.855 96.8426C125.998 96.2149 126.957 95.3002 127.638 94.1887C128.319 93.0773 128.699 91.8074 128.74 90.5044C128.781 89.2014 128.482 87.9102 127.871 86.7582C127.261 85.6062 126.361 84.6332 125.26 83.9351L65.0125 45.7901C63.8782 45.0718 62.5718 44.6711 61.2298 44.63C59.8878 44.5888 58.5593 44.9087 57.3831 45.5562C56.2069 46.2037 55.2261 47.155 54.5431 48.311C53.86 49.4669 53.4998 50.7849 53.5 52.1276V123.333C53.5009 124.635 53.8409 125.914 54.4865 127.045C55.132 128.176 56.0609 129.12 57.1817 129.782C58.3026 130.445 59.5767 130.805 60.8787 130.826C62.1807 130.847 63.4658 130.529 64.6075 129.903L124.855 96.8426Z" fill="white"/>
</g>
<path fill-rule="evenodd" clip-rule="evenodd" d="M46 115.908L113.605 79.285L46 37.03V115.908ZM117.175 85.885C118.33 85.2609 119.3 84.3448 119.99 83.2281C120.679 82.1114 121.064 80.8333 121.105 79.5215C121.146 78.2097 120.842 76.9101 120.223 75.7525C119.605 74.595 118.693 73.62 117.58 72.925L49.975 30.67C48.8397 29.9605 47.5352 29.5678 46.1969 29.5326C44.8585 29.4975 43.5352 29.8212 42.3642 30.4702C41.1933 31.1192 40.2174 32.0698 39.5379 33.2233C38.8584 34.3769 38.5 35.6913 38.5 37.03V115.908C38.4993 117.207 38.8362 118.484 39.4776 119.614C40.1191 120.744 41.0432 121.688 42.1593 122.354C43.2754 123.019 44.5452 123.383 45.8443 123.41C47.1434 123.437 48.4273 123.126 49.57 122.508L117.175 85.885Z" fill="white"/>
<mask id="path-6-outside-1_371_4" maskUnits="userSpaceOnUse" x="51.6154" y="66.6154" width="44" height="19" fill="black">
<rect fill="white" x="51.6154" y="66.6154" width="44" height="19"/>
<path d="M53.2817 68.9154L57.2567 68.0404L60.5817 80.6154L63.5817 68.2904H67.4567L70.8317 80.8904L74.1317 68.0404L76.3067 68.6654L72.0817 84.2154H67.6817L64.6317 72.2404L61.6317 84.2154H57.5067L53.2817 68.9154ZM85.9051 70.3404C83.3051 70.3404 82.5301 72.8654 82.2551 75.0154H89.3301C89.1301 72.6904 88.3301 70.3404 85.9051 70.3404ZM92.3051 80.4654L93.3051 82.4404C90.9301 83.7654 88.8801 84.3404 86.3801 84.3404C81.7051 84.3404 77.8051 81.8904 77.8051 76.3154C77.8051 71.4154 80.8051 68.1404 85.9051 68.1404C88.9051 68.1404 90.9301 69.1154 92.1551 70.7404C93.3801 72.3654 93.7301 74.4654 93.7301 76.4404C93.7301 76.7154 93.7301 76.9904 93.7051 77.2654H82.2551C82.5301 80.5904 84.3551 82.1154 86.6551 82.1154C88.3551 82.1154 90.1801 81.6904 92.3051 80.4654Z"/>
</mask>
<path d="M53.2817 68.9154L57.2567 68.0404L60.5817 80.6154L63.5817 68.2904H67.4567L70.8317 80.8904L74.1317 68.0404L76.3067 68.6654L72.0817 84.2154H67.6817L64.6317 72.2404L61.6317 84.2154H57.5067L53.2817 68.9154ZM85.9051 70.3404C83.3051 70.3404 82.5301 72.8654 82.2551 75.0154H89.3301C89.1301 72.6904 88.3301 70.3404 85.9051 70.3404ZM92.3051 80.4654L93.3051 82.4404C90.9301 83.7654 88.8801 84.3404 86.3801 84.3404C81.7051 84.3404 77.8051 81.8904 77.8051 76.3154C77.8051 71.4154 80.8051 68.1404 85.9051 68.1404C88.9051 68.1404 90.9301 69.1154 92.1551 70.7404C93.3801 72.3654 93.7301 74.4654 93.7301 76.4404C93.7301 76.7154 93.7301 76.9904 93.7051 77.2654H82.2551C82.5301 80.5904 84.3551 82.1154 86.6551 82.1154C88.3551 82.1154 90.1801 81.6904 92.3051 80.4654Z" fill="white"/>
<path d="M53.2817 68.9154L53.0667 67.9387L52.0371 68.1654L52.3177 69.1815L53.2817 68.9154ZM57.2567 68.0404L58.2234 67.7847L57.9783 66.8576L57.0417 67.0637L57.2567 68.0404ZM60.5817 80.6154L59.6149 80.871L61.5533 80.8519L60.5817 80.6154ZM63.5817 68.2904V67.2904H62.7959L62.61 68.0539L63.5817 68.2904ZM67.4567 68.2904L68.4226 68.0316L68.2241 67.2904H67.4567V68.2904ZM70.8317 80.8904L69.8657 81.1491L70.852 84.8313L71.8002 81.1391L70.8317 80.8904ZM74.1317 68.0404L74.4078 67.0792L73.419 66.7951L73.1631 67.7916L74.1317 68.0404ZM76.3067 68.6654L77.2717 68.9276L77.5301 67.9764L76.5828 67.7043L76.3067 68.6654ZM72.0817 84.2154V85.2154H72.8462L73.0467 84.4776L72.0817 84.2154ZM67.6817 84.2154L66.7126 84.4622L66.9044 85.2154H67.6817V84.2154ZM64.6317 72.2404L65.6007 71.9935L63.6616 71.9973L64.6317 72.2404ZM61.6317 84.2154V85.2154H62.412L62.6017 84.4584L61.6317 84.2154ZM57.5067 84.2154L56.5427 84.4815L56.7454 85.2154H57.5067V84.2154ZM53.4966 69.892L57.4716 69.017L57.0417 67.0637L53.0667 67.9387L53.4966 69.892ZM56.2899 68.296L59.6149 80.871L61.5484 80.3597L58.2234 67.7847L56.2899 68.296ZM61.5533 80.8519L64.5533 68.5269L62.61 68.0539L59.61 80.3789L61.5533 80.8519ZM63.5817 69.2904H67.4567V67.2904H63.5817V69.2904ZM66.4907 68.5491L69.8657 81.1491L71.7976 80.6316L68.4226 68.0316L66.4907 68.5491ZM71.8002 81.1391L75.1002 68.2891L73.1631 67.7916L69.8631 80.6416L71.8002 81.1391ZM73.8555 69.0015L76.0305 69.6265L76.5828 67.7043L74.4078 67.0792L73.8555 69.0015ZM75.3417 68.4032L71.1167 83.9532L73.0467 84.4776L77.2717 68.9276L75.3417 68.4032ZM72.0817 83.2154H67.6817V85.2154H72.0817V83.2154ZM68.6507 83.9685L65.6007 71.9935L63.6626 72.4872L66.7126 84.4622L68.6507 83.9685ZM63.6616 71.9973L60.6616 83.9723L62.6017 84.4584L65.6017 72.4834L63.6616 71.9973ZM61.6317 83.2154H57.5067V85.2154H61.6317V83.2154ZM58.4706 83.9492L54.2456 68.6492L52.3177 69.1815L56.5427 84.4815L58.4706 83.9492ZM82.2551 75.0154L81.2632 74.8885L81.119 76.0154H82.2551V75.0154ZM89.3301 75.0154V76.0154H90.4198L90.3264 74.9297L89.3301 75.0154ZM92.3051 80.4654L93.1973 80.0136L92.7203 79.0717L91.8057 79.599L92.3051 80.4654ZM93.3051 82.4404L93.7923 83.3136L94.6312 82.8456L94.1973 81.9886L93.3051 82.4404ZM92.1551 70.7404L92.9536 70.1384L92.9536 70.1384L92.1551 70.7404ZM93.7051 77.2654V78.2654H94.6183L94.701 77.3559L93.7051 77.2654ZM82.2551 77.2654V76.2654H81.169L81.2585 77.3478L82.2551 77.2654ZM85.9051 69.3404C84.2009 69.3404 83.0595 70.2037 82.3563 71.348C81.6898 72.4324 81.4059 73.7729 81.2632 74.8885L83.247 75.1422C83.3793 74.1078 83.6204 73.1108 84.0602 72.3952C84.4632 71.7395 85.0093 71.3404 85.9051 71.3404V69.3404ZM82.2551 76.0154H89.3301V74.0154H82.2551V76.0154ZM90.3264 74.9297C90.2215 73.71 89.9533 72.3619 89.3089 71.2906C88.6282 70.1588 87.5201 69.3404 85.9051 69.3404V71.3404C86.7151 71.3404 87.2195 71.6969 87.595 72.3214C88.007 73.0063 88.2387 73.9957 88.3338 75.1011L90.3264 74.9297ZM91.4129 80.9171L92.4129 82.8921L94.1973 81.9886L93.1973 80.0136L91.4129 80.9171ZM92.8179 81.5671C90.5737 82.8191 88.69 83.3404 86.3801 83.3404V85.3404C89.0702 85.3404 91.2865 84.7116 93.7923 83.3136L92.8179 81.5671ZM86.3801 83.3404C84.2037 83.3404 82.3122 82.7691 80.9825 81.6527C79.6798 80.5587 78.8051 78.8494 78.8051 76.3154H76.8051C76.8051 79.3563 77.8805 81.6595 79.6964 83.1843C81.4855 84.6866 83.8815 85.3404 86.3801 85.3404V83.3404ZM78.8051 76.3154C78.8051 74.0691 79.4896 72.2943 80.6606 71.0864C81.8272 69.883 83.5751 69.1404 85.9051 69.1404V67.1404C83.1352 67.1404 80.833 68.0352 79.2246 69.6943C77.6206 71.3489 76.8051 73.6616 76.8051 76.3154H78.8051ZM85.9051 69.1404C88.677 69.1404 90.3668 70.0294 91.3566 71.3423L92.9536 70.1384C91.4934 68.2014 89.1332 67.1404 85.9051 67.1404V69.1404ZM91.3566 71.3423C92.3906 72.714 92.7301 74.555 92.7301 76.4404H94.7301C94.7301 74.3757 94.3696 72.0167 92.9536 70.1384L91.3566 71.3423ZM92.7301 76.4404C92.7301 76.7228 92.7294 76.9525 92.7092 77.1748L94.701 77.3559C94.7308 77.0282 94.7301 76.7079 94.7301 76.4404H92.7301ZM93.7051 76.2654H82.2551V78.2654H93.7051V76.2654ZM81.2585 77.3478C81.4095 79.174 81.9975 80.6294 82.9803 81.6359C83.9721 82.6517 85.2747 83.1154 86.6551 83.1154V81.1154C85.7355 81.1154 84.9756 80.8165 84.4112 80.2386C83.8377 79.6513 83.3757 78.6817 83.2517 77.1829L81.2585 77.3478ZM86.6551 83.1154C88.543 83.1154 90.539 82.6377 92.8045 81.3317L91.8057 79.599C89.8212 80.743 88.1672 81.1154 86.6551 81.1154V83.1154Z" fill="#333333" fill-opacity="0.1" mask="url(#path-6-outside-1_371_4)"/>
<mask id="path-8-outside-2_371_4" maskUnits="userSpaceOnUse" x="179" y="13" width="375" height="124" fill="black">
<rect fill="white" x="179" y="13" width="375" height="124"/>
<path d="M220.37 77.43C195.15 77.43 183.19 64.56 183.19 46.62C183.19 31.15 195.15 15.68 220.37 15.68C245.59 15.68 257.55 31.15 257.55 46.62C257.55 64.56 245.59 77.43 220.37 77.43ZM180.72 95.24V84.84H262.49V95.24H234.93V129.17H207.24V95.24H180.72ZM210.88 46.62C210.88 56.89 213.35 67.94 220.37 67.94C227.39 67.94 229.86 56.89 229.86 46.62C229.86 36.35 227.39 25.3 220.37 25.3C213.35 25.3 210.88 36.35 210.88 46.62ZM265.87 129.17V24C265.87 17.76 272.37 14.38 279.65 14.38C286.28 14.38 293.56 17.63 293.56 24V129.17H265.87ZM352.71 135.67C331.39 135.67 319.69 132.55 319.69 119.29V106.42H392.49V97.97H319.17V87.96H420.31V115.91H347.51V119.16C347.51 124.23 351.15 125.66 359.73 125.66H422.65V135.67H352.71ZM310.72 78.6V68.2H429.28V78.6H310.72ZM315.79 59.23V48.83H330.74V32.97H358.56V48.83H381.05V32.97H408.87V48.83H423.82V59.23H315.79ZM317.09 28.42V18.02H422.65V28.42H317.09ZM487 109.41C456.19 109.41 444.1 101.48 444.1 79.77V55.46H487.13V29.98H444.1V19.58H514.82V65.6H471.79V81.85C471.79 93.94 475.43 99.01 489.73 99.01H516.9V109.41H487ZM524.83 129.17V24C524.83 17.76 531.33 14.38 538.61 14.38C545.24 14.38 552.52 17.63 552.52 24V129.17H524.83Z"/>
</mask>
<path d="M220.37 77.43C195.15 77.43 183.19 64.56 183.19 46.62C183.19 31.15 195.15 15.68 220.37 15.68C245.59 15.68 257.55 31.15 257.55 46.62C257.55 64.56 245.59 77.43 220.37 77.43ZM180.72 95.24V84.84H262.49V95.24H234.93V129.17H207.24V95.24H180.72ZM210.88 46.62C210.88 56.89 213.35 67.94 220.37 67.94C227.39 67.94 229.86 56.89 229.86 46.62C229.86 36.35 227.39 25.3 220.37 25.3C213.35 25.3 210.88 36.35 210.88 46.62ZM265.87 129.17V24C265.87 17.76 272.37 14.38 279.65 14.38C286.28 14.38 293.56 17.63 293.56 24V129.17H265.87ZM352.71 135.67C331.39 135.67 319.69 132.55 319.69 119.29V106.42H392.49V97.97H319.17V87.96H420.31V115.91H347.51V119.16C347.51 124.23 351.15 125.66 359.73 125.66H422.65V135.67H352.71ZM310.72 78.6V68.2H429.28V78.6H310.72ZM315.79 59.23V48.83H330.74V32.97H358.56V48.83H381.05V32.97H408.87V48.83H423.82V59.23H315.79ZM317.09 28.42V18.02H422.65V28.42H317.09ZM487 109.41C456.19 109.41 444.1 101.48 444.1 79.77V55.46H487.13V29.98H444.1V19.58H514.82V65.6H471.79V81.85C471.79 93.94 475.43 99.01 489.73 99.01H516.9V109.41H487ZM524.83 129.17V24C524.83 17.76 531.33 14.38 538.61 14.38C545.24 14.38 552.52 17.63 552.52 24V129.17H524.83Z" fill="#3366FF"/>
<path d="M180.72 95.24H179.72V96.24H180.72V95.24ZM180.72 84.84V83.84H179.72V84.84H180.72ZM262.49 84.84H263.49V83.84H262.49V84.84ZM262.49 95.24V96.24H263.49V95.24H262.49ZM234.93 95.24V94.24H233.93V95.24H234.93ZM234.93 129.17V130.17H235.93V129.17H234.93ZM207.24 129.17H206.24V130.17H207.24V129.17ZM207.24 95.24H208.24V94.24H207.24V95.24ZM265.87 129.17H264.87V130.17H265.87V129.17ZM293.56 129.17V130.17H294.56V129.17H293.56ZM220.37 76.43C207.921 76.43 198.892 73.2541 192.987 68.0051C187.096 62.7685 184.19 55.3593 184.19 46.62H182.19C182.19 55.8207 185.264 63.8165 191.658 69.4999C198.038 75.1709 207.599 78.43 220.37 78.43V76.43ZM184.19 46.62C184.19 39.1438 187.078 31.6772 193.009 26.0758C198.935 20.4789 207.97 16.68 220.37 16.68V14.68C207.55 14.68 197.995 18.6161 191.636 24.6217C185.282 30.6228 182.19 38.6262 182.19 46.62H184.19ZM220.37 16.68C232.77 16.68 241.805 20.4789 247.731 26.0758C253.662 31.6772 256.55 39.1438 256.55 46.62H258.55C258.55 38.6262 255.458 30.6228 249.104 24.6217C242.745 18.6161 233.19 14.68 220.37 14.68V16.68ZM256.55 46.62C256.55 55.3593 253.644 62.7685 247.753 68.0051C241.848 73.2541 232.819 76.43 220.37 76.43V78.43C233.141 78.43 242.702 75.1709 249.082 69.4999C255.476 63.8165 258.55 55.8207 258.55 46.62H256.55ZM181.72 95.24V84.84H179.72V95.24H181.72ZM180.72 85.84H262.49V83.84H180.72V85.84ZM261.49 84.84V95.24H263.49V84.84H261.49ZM262.49 94.24H234.93V96.24H262.49V94.24ZM233.93 95.24V129.17H235.93V95.24H233.93ZM234.93 128.17H207.24V130.17H234.93V128.17ZM208.24 129.17V95.24H206.24V129.17H208.24ZM207.24 94.24H180.72V96.24H207.24V94.24ZM209.88 46.62C209.88 51.8127 210.502 57.2753 212.054 61.4778C213.589 65.6316 216.203 68.94 220.37 68.94V66.94C217.517 66.94 215.386 64.7234 213.931 60.7847C212.493 56.8947 211.88 51.6973 211.88 46.62H209.88ZM220.37 68.94C224.537 68.94 227.151 65.6316 228.686 61.4778C230.238 57.2753 230.86 51.8127 230.86 46.62H228.86C228.86 51.6973 228.247 56.8947 226.809 60.7847C225.354 64.7234 223.223 66.94 220.37 66.94V68.94ZM230.86 46.62C230.86 41.4273 230.238 35.9647 228.686 31.7622C227.151 27.6084 224.537 24.3 220.37 24.3V26.3C223.223 26.3 225.354 28.5166 226.809 32.4553C228.247 36.3453 228.86 41.5427 228.86 46.62H230.86ZM220.37 24.3C216.203 24.3 213.589 27.6084 212.054 31.7622C210.502 35.9647 209.88 41.4273 209.88 46.62H211.88C211.88 41.5427 212.493 36.3453 213.931 32.4553C215.386 28.5166 217.517 26.3 220.37 26.3V24.3ZM266.87 129.17V24H264.87V129.17H266.87ZM266.87 24C266.87 21.2849 268.263 19.1706 270.57 17.6919C272.904 16.1958 276.147 15.38 279.65 15.38V13.38C275.873 13.38 272.226 14.2542 269.49 16.0081C266.727 17.7794 264.87 20.4751 264.87 24H266.87ZM279.65 15.38C282.822 15.38 286.111 16.1611 288.572 17.6559C291.015 19.1399 292.56 21.261 292.56 24H294.56C294.56 20.369 292.465 17.6801 289.61 15.9465C286.774 14.2239 283.108 13.38 279.65 13.38V15.38ZM292.56 24V129.17H294.56V24H292.56ZM293.56 128.17H265.87V130.17H293.56V128.17ZM319.69 106.42V105.42H318.69V106.42H319.69ZM392.49 106.42V107.42H393.49V106.42H392.49ZM392.49 97.97H393.49V96.97H392.49V97.97ZM319.17 97.97H318.17V98.97H319.17V97.97ZM319.17 87.96V86.96H318.17V87.96H319.17ZM420.31 87.96H421.31V86.96H420.31V87.96ZM420.31 115.91V116.91H421.31V115.91H420.31ZM347.51 115.91V114.91H346.51V115.91H347.51ZM422.65 125.66H423.65V124.66H422.65V125.66ZM422.65 135.67V136.67H423.65V135.67H422.65ZM310.72 78.6H309.72V79.6H310.72V78.6ZM310.72 68.2V67.2H309.72V68.2H310.72ZM429.28 68.2H430.28V67.2H429.28V68.2ZM429.28 78.6V79.6H430.28V78.6H429.28ZM315.79 59.23H314.79V60.23H315.79V59.23ZM315.79 48.83V47.83H314.79V48.83H315.79ZM330.74 48.83V49.83H331.74V48.83H330.74ZM330.74 32.97V31.97H329.74V32.97H330.74ZM358.56 32.97H359.56V31.97H358.56V32.97ZM358.56 48.83H357.56V49.83H358.56V48.83ZM381.05 48.83V49.83H382.05V48.83H381.05ZM381.05 32.97V31.97H380.05V32.97H381.05ZM408.87 32.97H409.87V31.97H408.87V32.97ZM408.87 48.83H407.87V49.83H408.87V48.83ZM423.82 48.83H424.82V47.83H423.82V48.83ZM423.82 59.23V60.23H424.82V59.23H423.82ZM317.09 28.42H316.09V29.42H317.09V28.42ZM317.09 18.02V17.02H316.09V18.02H317.09ZM422.65 18.02H423.65V17.02H422.65V18.02ZM422.65 28.42V29.42H423.65V28.42H422.65ZM352.71 134.67C342.05 134.67 333.985 133.882 328.605 131.536C325.941 130.374 323.984 128.85 322.685 126.891C321.387 124.933 320.69 122.455 320.69 119.29H318.69C318.69 122.755 319.456 125.64 321.018 127.996C322.579 130.351 324.879 132.093 327.805 133.369C333.605 135.898 342.05 136.67 352.71 136.67V134.67ZM320.69 119.29V106.42H318.69V119.29H320.69ZM319.69 107.42H392.49V105.42H319.69V107.42ZM393.49 106.42V97.97H391.49V106.42H393.49ZM392.49 96.97H319.17V98.97H392.49V96.97ZM320.17 97.97V87.96H318.17V97.97H320.17ZM319.17 88.96H420.31V86.96H319.17V88.96ZM419.31 87.96V115.91H421.31V87.96H419.31ZM420.31 114.91H347.51V116.91H420.31V114.91ZM346.51 115.91V119.16H348.51V115.91H346.51ZM346.51 119.16C346.51 120.544 346.758 121.766 347.341 122.804C347.929 123.853 348.815 124.636 349.955 125.206C352.169 126.313 355.441 126.66 359.73 126.66V124.66C355.439 124.66 352.601 124.292 350.85 123.417C350.007 122.996 349.447 122.471 349.085 121.825C348.717 121.169 348.51 120.311 348.51 119.16H346.51ZM359.73 126.66H422.65V124.66H359.73V126.66ZM421.65 125.66V135.67H423.65V125.66H421.65ZM422.65 134.67H352.71V136.67H422.65V134.67ZM311.72 78.6V68.2H309.72V78.6H311.72ZM310.72 69.2H429.28V67.2H310.72V69.2ZM428.28 68.2V78.6H430.28V68.2H428.28ZM429.28 77.6H310.72V79.6H429.28V77.6ZM316.79 59.23V48.83H314.79V59.23H316.79ZM315.79 49.83H330.74V47.83H315.79V49.83ZM331.74 48.83V32.97H329.74V48.83H331.74ZM330.74 33.97H358.56V31.97H330.74V33.97ZM357.56 32.97V48.83H359.56V32.97H357.56ZM358.56 49.83H381.05V47.83H358.56V49.83ZM382.05 48.83V32.97H380.05V48.83H382.05ZM381.05 33.97H408.87V31.97H381.05V33.97ZM407.87 32.97V48.83H409.87V32.97H407.87ZM408.87 49.83H423.82V47.83H408.87V49.83ZM422.82 48.83V59.23H424.82V48.83H422.82ZM423.82 58.23H315.79V60.23H423.82V58.23ZM318.09 28.42V18.02H316.09V28.42H318.09ZM317.09 19.02H422.65V17.02H317.09V19.02ZM421.65 18.02V28.42H423.65V18.02H421.65ZM422.65 27.42H317.09V29.42H422.65V27.42ZM444.1 55.46V54.46H443.1V55.46H444.1ZM487.13 55.46V56.46H488.13V55.46H487.13ZM487.13 29.98H488.13V28.98H487.13V29.98ZM444.1 29.98H443.1V30.98H444.1V29.98ZM444.1 19.58V18.58H443.1V19.58H444.1ZM514.82 19.58H515.82V18.58H514.82V19.58ZM514.82 65.6V66.6H515.82V65.6H514.82ZM471.79 65.6V64.6H470.79V65.6H471.79ZM516.9 99.01H517.9V98.01H516.9V99.01ZM516.9 109.41V110.41H517.9V109.41H516.9ZM524.83 129.17H523.83V130.17H524.83V129.17ZM552.52 129.17V130.17H553.52V129.17H552.52ZM487 108.41C471.627 108.41 461.168 106.42 454.56 101.906C448.055 97.461 445.1 90.4304 445.1 79.77H443.1C443.1 90.8196 446.19 98.609 453.432 103.557C460.572 108.435 471.563 110.41 487 110.41V108.41ZM445.1 79.77V55.46H443.1V79.77H445.1ZM444.1 56.46H487.13V54.46H444.1V56.46ZM488.13 55.46V29.98H486.13V55.46H488.13ZM487.13 28.98H444.1V30.98H487.13V28.98ZM445.1 29.98V19.58H443.1V29.98H445.1ZM444.1 20.58H514.82V18.58H444.1V20.58ZM513.82 19.58V65.6H515.82V19.58H513.82ZM514.82 64.6H471.79V66.6H514.82V64.6ZM470.79 65.6V81.85H472.79V65.6H470.79ZM470.79 81.85C470.79 87.9361 471.691 92.5817 474.68 95.6603C477.673 98.7433 482.517 100.01 489.73 100.01V98.01C482.643 98.01 478.517 96.7417 476.115 94.2672C473.709 91.7883 472.79 87.8539 472.79 81.85H470.79ZM489.73 100.01H516.9V98.01H489.73V100.01ZM515.9 99.01V109.41H517.9V99.01H515.9ZM516.9 108.41H487V110.41H516.9V108.41ZM525.83 129.17V24H523.83V129.17H525.83ZM525.83 24C525.83 21.2849 527.223 19.1706 529.53 17.6919C531.864 16.1958 535.107 15.38 538.61 15.38V13.38C534.833 13.38 531.186 14.2542 528.45 16.0081C525.687 17.7794 523.83 20.4751 523.83 24H525.83ZM538.61 15.38C541.782 15.38 545.071 16.1611 547.532 17.6559C549.975 19.1399 551.52 21.261 551.52 24H553.52C553.52 20.369 551.425 17.6801 548.57 15.9465C545.734 14.2239 542.068 13.38 538.61 13.38V15.38ZM551.52 24V129.17H553.52V24H551.52ZM552.52 128.17H524.83V130.17H552.52V128.17Z" fill="#333333" fill-opacity="0.5" mask="url(#path-8-outside-2_371_4)"/>
</svg>
